inDegrees=no
num_controls=7
num_derivatives=13
num_iterations=159
num_multipliers=7
num_parameters=0
num_slacks=7
num_states=26
objective=0.477742
objective_accelerations=0.043109
objective_balance=0.003601
objective_effort=0.039643
objective_height=0.385678
objective_ligament=0.005711
solver_duration=2044.310895
status=Solve_Succeeded
success=true
DataType=double
version=3
OpenSimVersion=4.5
endheader
time	/jointset/ground_pelvis/pelvis_tilt/value	/jointset/ground_pelvis/pelvis_tx/value	/jointset/ground_pelvis/pelvis_ty/value	/jointset/hip_l/hip_flexion_l/value	/jointset/hip_l/hip_adduction_l/value	/jointset/hip_l/hip_rotation_l/value	/jointset/back/lumbar_extension/value	/jointset/patellofemoral_l/patellar_flexion_l/value	/jointset/knee_l/knee_flexion_l/value	/jointset/knee_l/knee_adduction_l/value	/jointset/knee_l/knee_rotation_l/value	/jointset/ankle_l/ankle_angle_l/value	/jointset/subtalar_l/subtalar_angle_l/value	/jointset/ground_pelvis/pelvis_tilt/speed	/jointset/ground_pelvis/pelvis_tx/speed	/jointset/ground_pelvis/pelvis_ty/speed	/jointset/hip_l/hip_flexion_l/speed	/jointset/hip_l/hip_adduction_l/speed	/jointset/hip_l/hip_rotation_l/speed	/jointset/back/lumbar_extension/speed	/jointset/patellofemoral_l/patellar_flexion_l/speed	/jointset/knee_l/knee_flexion_l/speed	/jointset/knee_l/knee_adduction_l/speed	/jointset/knee_l/knee_rotation_l/speed	/jointset/ankle_l/ankle_angle_l/speed	/jointset/subtalar_l/subtalar_angle_l/speed	/forceset/tau_hip_flexion_l	/forceset/tau_hip_adduction_l	/forceset/tau_hip_rotation_l	/forceset/tau_knee_flexion_l	/forceset/tau_ankle_angle_l	/forceset/tau_subtalar_angle_l	/forceset/tau_lumbar_extension	lambda_cid13_p0	lambda_cid13_p1	lambda_cid13_p2	lambda_cid13_p3	lambda_cid13_p4	lambda_cid13_p5	lambda_cid14_p0	/jointset/ground_pelvis/pelvis_tilt/accel	/jointset/ground_pelvis/pelvis_tx/accel	/jointset/ground_pelvis/pelvis_ty/accel	/jointset/hip_l/hip_flexion_l/accel	/jointset/hip_l/hip_adduction_l/accel	/jointset/hip_l/hip_rotation_l/accel	/jointset/back/lumbar_extension/accel	/jointset/patellofemoral_l/patellar_flexion_l/accel	/jointset/knee_l/knee_flexion_l/accel	/jointset/knee_l/knee_adduction_l/accel	/jointset/knee_l/knee_rotation_l/accel	/jointset/ankle_l/ankle_angle_l/accel	/jointset/subtalar_l/subtalar_angle_l/accel	gamma_cid13_p0	gamma_cid13_p1	gamma_cid13_p2	gamma_cid13_p3	gamma_cid13_p4	gamma_cid13_p5	gamma_cid14_p0
1.5	0.01700328077997496	-0.008840444814990025	0.855934130697854	0.6516010986088082	-0.3232393184259418	-0.1352182410632539	-0.7941092287302749	0.7653149012543689	0.7653149012543652	-0.1073291899624167	-0.1745329248336856	0.153148843367953	0.0232122493446812	0.3003821034081784	0.2278702420532752	0.406998204107122	-1.925913559776382	0.08723976103370697	-0.6397020294111526	0.8412957523780288	-1.96116561212014	-1.961165612120154	-0.1352080350657813	7.209131032427342e-05	-0.4553692787423496	-0.05942968990220438	-0.1896893977646874	0.01973713220478164	-0.004738862941327414	-0.2280836702235923	0.06501582837249699	0.04220244336235924	0.2745412770524198	-21.24422540683339	-17.08127268821775	5.093060358762032	-7.547394906763896	-670.181745770588	-78.08545829919706	-15.73030030684435	-0.04453869868834882	0.6314430536930853	-0.59746670901414	-0.6538286775208282	0.4690750108498887	-0.3183264074026577	1.92996656105261	-0.9764504976043795	-0.9764504976043702	-0.2741512597349681	0.04877530212555209	-0.2602771794335347	0.4538040523684689	1.909363055368469e-07	1.368808522415337e-06	-6.251058079230912e-07	1.092905763319354e-07	2.849676183062714e-07	5.623859569377518e-07	2.22466210126574e-07
1.51	0.02000473118637086	-0.006530378143559067	0.8599734597660528	0.6323110117975962	-0.322344133633631	-0.1416317846879282	-0.7856011940333018	0.7456566827800071	0.7456566827800122	-0.1086955925695463	-0.1745314911659333	0.1485826142023871	0.02263995368626701	0.2998678862301198	0.2341186610692237	0.4007856543850929	-1.931855329459147	0.09179989381109156	-0.6429129746630488	0.8601966461807565	-1.970208530922651	-1.970208530922603	-0.1380775926657547	0.0002421731274353889	-0.4577913925200099	-0.05500544496132456	-0.1826630897648126	0.01885605559369787	-0.004583541740753561	-0.2244021527187845	0.06583508997974605	0.04145624496802382	0.2676533373066592	-20.76508640118703	-16.87836613093572	5.10328673941928	-7.510209569817984	-665.9000989401666	-77.9733332325201	-16.42500747104312	-0.06087793156929552	0.6179119755943161	-0.6453890583713383	-0.5270806808263238	0.4497250234454725	-0.3082269038858242	1.852969664518968	-0.8278200493825651	-0.8278200493732066	-0.2938566380024122	0.005202601545235955	-0.22034777709145	0.4400963941189326	1.545347325490039e-07	1.57576500438896e-06	-3.779205616228249e-07	1.537300522207459e-07	2.728369497278395e-07	5.814129977430882e-07	2.084709571539461e-07
1.52	0.02299983648014541	-0.00415855315195888	0.8639482153461167	0.6129689613761219	-0.3214032989910942	-0.1480745874290822	-0.7769075866233741	0.7259161136220584	0.7259161136220728	-0.1100907904782496	-0.1745275410839956	0.1439947300390127	0.02211257281309584	0.2991130808838732	0.2402219060871212	0.394083506480101	-1.936306281828794	0.09636973107898597	-0.6455538527070555	0.8784102949689274	-1.977635748837486	-1.977635748837375	-0.140967095380684	0.0005753741461998439	-0.4597002783040374	-0.0504467328535972	-0.1756367817649397	0.01797497898261224	-0.004428220540175345	-0.2207206352139779	0.06665435158699427	0.04071004657368583	0.2607653975608976	-20.28531071133426	-16.67721242406779	5.115667858575551	-7.50736441002198	-661.6381688621117	-77.89238038367658	-17.11007367256703	-0.09265633232596422	0.602408254082903	-0.6953863456067035	-0.3556652148973916	0.4710159089518461	-0.2043129658248237	1.792517558141211	-0.6533103200691632	-0.653310320069186	-0.2781402827261535	0.0813991424562026	-0.1576315807070023	0.4806974857379689	1.300284155409459e-07	1.728441307475273e-06	-2.180092661358701e-07	1.832024694998214e-07	2.704716727063044e-07	5.977666377905156e-07	2.005424327997475e-07
1.53	0.0259862219229789	-0.001726482599148796	0.8678535859257761	0.5935897978962762	-0.3204167167879294	-0.1545414216266639	-0.7680355036759049	0.7061093445420733	0.7061093445420719	-0.1115146685646141	-0.1745197633321612	0.1393903255631465	0.02163146439071553	0.2981239033197076	0.2461612448600683	0.3869159237932029	-1.939273580238022	0.1009454748031398	-0.6477306695201592	0.8958726611908	-1.983441862458865	-1.983441862458883	-0.1438014788223995	0.0009972796292613616	-0.461093276254877	-0.04575469097312429	-0.168474967119367	0.01693414892524761	-0.004337375044915969	-0.2173213533941404	0.06761159964335334	0.03989315008041854	0.2537664741859559	-19.78074110286401	-16.44563722089228	5.118562747301003	-7.451104130582489	-657.5994664427124	-77.80050779634402	-17.78616231444995	-0.1080716826068545	0.5850935540724741	-0.7385905249094906	-0.2293445694234313	0.4504581329488481	-0.2118306203940176	1.703051154106591	-0.5028708312096751	-0.5028708312290033	-0.2847264036289507	0.02512181548887299	-0.1169725049036152	0.4662127411174273	1.181608080114094e-07	1.823444920493822e-06	-1.508265433880577e-07	1.967723870060535e-07	2.78482124213972e-07	6.112797895326646e-07	1.9905980760263e-07
1.54	0.02896151094734197	0.000764060714425154	0.8716850514196307	0.5741885449492411	-0.3193844562417632	-0.1610275169086428	-0.7589928060662378	0.6862527925362621	0.686252792536252	-0.1129666182911369	-0.1745072594126488	0.1347746233872461	0.02119782742752303	0.2968937971897407	0.2519164582398943	0.3793024893191789	-1.940724175266766	0.1055053996793594	-0.6494060695868976	0.9125332274085236	-1.987592334001741	-1.987592334001888	-0.1465814234135028	0.001520607682633437	-0.4619598183109637	-0.04095244101603208	-0.16131315247379	0.01589331886789134	-0.00424652954960244	-0.2139220715743038	0.06856884769971493	0.03907625358716104	0.246767550811015	-19.27446860792831	-16.21570127893191	5.123251139614123	-7.430449958707944	-653.5650944657078	-77.73401182380874	-18.45178666089467	-0.1408420454861866	0.565583175458702	-0.7845567030318893	-0.05232453880053502	0.4678521393650066	-0.1040296165517083	1.632157557311396	-0.3221819043683853	-0.3221819043683823	-0.2672525126037215	0.1016836565183078	-0.0523404017564308	0.5027391010618256	1.10954750556531e-07	1.852247482330201e-06	-1.460459191991464e-07	2.04020990350414e-07	2.745313294149578e-07	6.194265329998447e-07	2.000208086789198e-07
1.55	0.03192316999655985	0.003311150223186832	0.8754381852128216	0.5547806770860968	-0.3183067262916597	-0.1675275891515208	-0.7497875898823826	0.6663632280676987	0.6663632280677041	-0.114446219361901	-0.1744888481341738	0.1301529224803984	0.02081272137540024	0.2953975238099454	0.2574611857503042	0.3712565066768422	-1.940584807998521	0.1100340098120336	-0.6505220052033388	0.9283509806637441	-1.990033271260482	-1.990033271260498	-0.1493269946759946	0.002178730372723611	-0.462293153051182	-0.03605455091326684	-0.1540011604468334	0.01475143682787717	-0.00422255205411215	-0.2107229373350035	0.0695876034335671	0.03815642812874535	0.239626975925998	-18.76750569941304	-15.93619990353326	5.114343784159062	-7.315587494629142	-649.7121068767667	-77.61397377947733	-19.09495907786653	-0.1600982338961337	0.5429196679051486	-0.824734051589141	0.08675029521676965	0.4441941542795178	-0.1022290588530611	1.532729904829242	-0.1619975480774825	-0.1619975480578278	-0.2761581083123126	0.05038070612985585	-0.01069522174469097	0.4851944317707507	1.091196094920192e-07	1.804774919978433e-06	-2.131633650889651e-07	2.039863404213143e-07	2.567990986538979e-07	6.213902408458653e-07	2.037972922006571e-07
1.56	0.03486865066204629	0.005912487432867236	0.8791088361782383	0.5353821394827515	-0.3171839444994175	-0.1740361914554946	-0.7404289670269351	0.6464578646442549	0.646457864644282	-0.1159528658803357	-0.1744633548026261	0.1255305151838308	0.02047697031768249	0.2936581204433513	0.2627659984236394	0.3628059237643214	-1.938858123307086	0.1145157681071417	-0.6511120818062901	0.9432145617270375	-1.990752124977242	-1.990752124977126	-0.1519905129481022	0.002937018297833493	-0.4621010962550068	-0.03108144213502629	-0.1466891684198739	0.01360955478786876	-0.004198574558594254	-0.2075238030957032	0.07060635916742115	0.03723660267033632	0.2324864010409811	-18.26370240217956	-15.65689062340889	5.106318938054193	-7.220067049426073	-645.9304096811196	-77.52796528899123	-19.71027468125191	-0.1894680428459118	0.5176002080437748	-0.8654767570687064	0.2651389458373606	0.4584817718517768	0.001142186146248485	1.441323118925958	0.02223480402800221	0.02223480402800274	-0.2508419145268818	0.1217167035222494	0.05273790552224522	0.517782836156886	1.001441062644406e-07	1.784967353602289e-06	-2.254766193680285e-07	2.072438093645152e-07	2.422046179701553e-07	6.154443221364998e-07	2.024590478511737e-07
1.57	0.03779546494556922	0.008565600239033792	0.8826930292690367	0.51600896553221	-0.3160165654579777	-0.180548104060498	-0.7309266212328865	0.6265540461879655	0.6265540461879598	-0.1174855902380399	-0.1744297823023274	0.1209126903337924	0.0201913655133834	0.2916624529506719	0.267808700766138	0.3539726925464983	-1.935500499477963	0.1189460019136568	-0.6511711329753663	0.9570759305746752	-1.989712476359978	-1.989712476359889	-0.1545451834945184	0.003798971727335621	-0.4613750035529406	-0.02603287750770067	-0.1392392884701096	0.0122423668012412	-0.004237950666059804	-0.2045953539825714	0.07180641877811118	0.03628968850538818	0.2252584545771106	-17.71945752202103	-15.36948936877407	5.093110244547725	-7.092350626996259	-642.3779418543846	-77.48020876663995	-20.29330083921123	-0.2109689787477467	0.4904697130489925	-0.9012015039379014	0.412487576717733	0.4329783466304676	0.005638849774720847	1.331743791500372	0.1896553234403026	0.1896553234365376	-0.2561105221007014	0.07161740186753844	0.09592623685461052	0.4991195970783237	8.224315033302847e-08	1.799741032195675e-06	-1.692846341336484e-07	2.146164268980918e-07	2.31532324883059e-07	5.99611370232902e-07	1.947273936626644e-07
1.58	0.04070105197891215	0.01126771296176458	0.8861870990076972	0.496677650515013	-0.3148053472461567	-0.1870575936535518	-0.7212910217455982	0.6066695893044265	0.6066695893043792	-0.1190435274806929	-0.1743869537198859	0.1163048026676356	0.01995639161956914	0.2894126704072396	0.2725659817364862	0.3447812533367228	-1.930486336638125	0.1232836021833377	-0.6506274794160711	0.9698653003750195	-1.986879810428122	-1.986879810428057	-0.1570330899370035	0.004788234724970541	-0.4601136594786426	-0.02095526003805846	-0.131789408520351	0.01087517881460586	-0.004277326773576202	-0.2016669048694389	0.07300647838879866	0.03534277434043102	0.2180305081132383	-17.17930638703947	-15.08088669257176	5.079157048323612	-6.978243595715387	-638.9092193232124	-77.46085769195378	-20.83965678469208	-0.2402910529964904	0.4605159336136907	-0.9371183554592104	0.5964467479801135	0.4399550644849393	0.1216831318205069	1.226923309467253	0.3808382669467237	0.3808382669467213	-0.2374890937406747	0.1471786171488098	0.1597881799685753	0.5235934046202034	6.245485819994444e-08	1.793021997891757e-06	-1.069252218997161e-07	2.198763529295036e-07	2.176887306483468e-07	5.737098272491994e-07	1.841517919306158e-07
